<svg width="24" height="25" viewBox="0 0 24 25" fill="none" xmlns="http://www.w3.org/2000/svg">
<g id="fluent:grid-24-filled">
<g id="Vector">
<path d="M13 15.4237C13 14.8269 13.2371 14.2546 13.659 13.8327C14.081 13.4107 14.6533 13.1737 15.25 13.1737L18.75 13.1737C19.3467 13.1737 19.919 13.4107 20.341 13.8327C20.7629 14.2546 21 14.8269 21 15.4237L21 18.9237C21 19.5204 20.7629 20.0927 20.341 20.5147C19.919 20.9366 19.3467 21.1737 18.75 21.1737L15.25 21.1737C14.6533 21.1737 14.081 20.9366 13.659 20.5147C13.2371 20.0927 13 19.5204 13 18.9237L13 15.4237ZM13 5.42366C13 4.82692 13.2371 4.25463 13.659 3.83267C14.081 3.41071 14.6533 3.17366 15.25 3.17366L18.75 3.17366C19.3467 3.17366 19.919 3.41071 20.341 3.83267C20.7629 4.25463 21 4.82692 21 5.42366L21 8.92366C21 9.5204 20.7629 10.0927 20.341 10.5146C19.919 10.9366 19.3467 11.1737 18.75 11.1737L15.25 11.1737C14.6533 11.1737 14.081 10.9366 13.659 10.5146C13.2371 10.0927 13 9.5204 13 8.92366L13 5.42366ZM3 15.4237C3 14.8269 3.23705 14.2546 3.65901 13.8327C4.08097 13.4107 4.65326 13.1737 5.25 13.1737L8.75 13.1737C9.34674 13.1737 9.91903 13.4107 10.341 13.8327C10.7629 14.2546 11 14.8269 11 15.4237L11 18.9237C11 19.5204 10.7629 20.0927 10.341 20.5147C9.91903 20.9366 9.34674 21.1737 8.75 21.1737L5.25 21.1737C4.65326 21.1737 4.08097 20.9366 3.65901 20.5147C3.23705 20.0927 3 19.5204 3 18.9237L3 15.4237ZM3 5.42366C3 4.82692 3.23705 4.25463 3.65901 3.83267C4.08097 3.41071 4.65326 3.17366 5.25 3.17366L8.75 3.17366C9.34674 3.17366 9.91903 3.41071 10.341 3.83267C10.7629 4.25463 11 4.82692 11 5.42366L11 8.92366C11 9.5204 10.7629 10.0927 10.341 10.5147C9.91903 10.9366 9.34674 11.1737 8.75 11.1737L5.25 11.1737C4.65326 11.1737 4.08097 10.9366 3.65901 10.5147C3.23705 10.0927 3 9.5204 3 8.92366L3 5.42366Z" fill="#141718"/>
<path d="M6 21.1737L6 13.1756L18 13.1756L18 21.1737L6 21.1737Z" fill="#141718"/>
<path d="M6 11.1717L6 3.17366L18 3.17366L18 11.1717L6 11.1717Z" fill="#141718"/>
</g>
</g>
</svg>
