<svg width="24" height="25" viewBox="0 0 24 25" fill="none" xmlns="http://www.w3.org/2000/svg">
<g id="fluent:grid-24-filled">
<path id="Vector" d="M8.75 13.1736C9.34674 13.1736 9.91903 13.4107 10.341 13.8326C10.7629 14.2546 11 14.8269 11 15.4236V18.9236C11 19.5204 10.7629 20.0926 10.341 20.5146C9.91903 20.9366 9.34674 21.1736 8.75 21.1736H5.25C4.65326 21.1736 4.08097 20.9366 3.65901 20.5146C3.23705 20.0926 3 19.5204 3 18.9236V15.4236C3 14.8269 3.23705 14.2546 3.65901 13.8326C4.08097 13.4107 4.65326 13.1736 5.25 13.1736H8.75ZM18.75 13.1736C19.3467 13.1736 19.919 13.4107 20.341 13.8326C20.7629 14.2546 21 14.8269 21 15.4236V18.9236C21 19.5204 20.7629 20.0926 20.341 20.5146C19.919 20.9366 19.3467 21.1736 18.75 21.1736H15.25C14.6533 21.1736 14.081 20.9366 13.659 20.5146C13.2371 20.0926 13 19.5204 13 18.9236V15.4236C13 14.8269 13.2371 14.2546 13.659 13.8326C14.081 13.4107 14.6533 13.1736 15.25 13.1736H18.75ZM8.75 3.17361C9.34674 3.17361 9.91903 3.41067 10.341 3.83262C10.7629 4.25458 11 4.82688 11 5.42361V8.92361C11 9.52035 10.7629 10.0926 10.341 10.5146C9.91903 10.9366 9.34674 11.1736 8.75 11.1736H5.25C4.65326 11.1736 4.08097 10.9366 3.65901 10.5146C3.23705 10.0926 3 9.52035 3 8.92361V5.42361C3 4.82688 3.23705 4.25458 3.65901 3.83262C4.08097 3.41067 4.65326 3.17361 5.25 3.17361H8.75ZM18.75 3.17361C19.3467 3.17361 19.919 3.41067 20.341 3.83262C20.7629 4.25458 21 4.82688 21 5.42361V8.92361C21 9.52035 20.7629 10.0926 20.341 10.5146C19.919 10.9366 19.3467 11.1736 18.75 11.1736H15.25C14.6533 11.1736 14.081 10.9366 13.659 10.5146C13.2371 10.0926 13 9.52035 13 8.92361V5.42361C13 4.82688 13.2371 4.25458 13.659 3.83262C14.081 3.41067 14.6533 3.17361 15.25 3.17361H18.75Z" fill="#6C7275"/>
</g>
</svg>
